<svg id="visual" viewBox="0 0 390 844" width="390" height="844" xmlns="http://www.w3.org/2000/svg" xmlns:xlink="http://www.w3.org/1999/xlink" version="1.1"><rect x="0" y="0" width="390" height="844" fill="#000000"></rect><path d="M0 222L13 211C26 200 52 178 78 182.5C104 187 130 218 156 217.8C182 217.7 208 186.3 234 159.7C260 133 286 111 312 104.2C338 97.3 364 105.7 377 109.8L390 114L390 0L377 0C364 0 338 0 312 0C286 0 260 0 234 0C208 0 182 0 156 0C130 0 104 0 78 0C52 0 26 0 13 0L0 0Z" fill="#ffffff" stroke-linecap="round" stroke-linejoin="miter"></path></svg>