<?xml version="1.0" encoding="UTF-8"?>
<svg width="24px" height="24px" viewBox="0 0 24 24" version="1.1" xmlns="http://www.w3.org/2000/svg" xmlns:xlink="http://www.w3.org/1999/xlink">
    <title>akar-icons:google-fill</title>
    <g id="Pages" stroke="none" stroke-width="1" fill="none" fill-rule="evenodd">
        <g id="Вход" transform="translate(-301.000000, -743.000000)">
            <g id="Дополнительные-входы" transform="translate(52.000000, 694.000000)">
                <g id="Гугл" transform="translate(235.000000, 35.000000)">
                    <g id="akar-icons:google-fill" transform="translate(14.000000, 14.000000)">
                        <rect id="ViewBox" x="0" y="0" width="24" height="24"></rect>
                        <g id="Group" transform="translate(2.353000, 2.156000)" fill="#FFFFFF" fill-rule="nonzero">
                            <path d="M19.1030005,7.99800046 C19.2260005,8.65700046 19.2930005,9.34600046 19.2930005,10.0650005 C19.2930005,15.6890005 15.5290005,19.6880009 9.84400046,19.6880009 C7.23296536,19.6887965 4.72864287,18.6519195 2.88236217,16.8056387 C1.03608146,14.959358 -0.000795629719,12.4550356 4.4408921e-16,9.84400046 C-0.000795629719,7.23296536 1.03608146,4.72864287 2.88236217,2.88236217 C4.72864287,1.03608146 7.23296536,-0.000795629719 9.84400046,0 C12.5020005,0 14.7230005,0.978000458 16.4270005,2.56600046 L13.6520005,5.34100046 L13.6520005,5.33400046 C12.6190005,4.35000046 11.3080005,3.84500046 9.84400046,3.84500046 C6.59600046,3.84500046 3.95600046,6.58900046 3.95600046,9.83800046 C3.95600046,13.0860005 6.59600046,15.8360005 9.84400046,15.8360005 C12.7910005,15.8360005 14.7970005,14.1510005 15.2090005,11.8370005 L9.84400046,11.8370005 L9.84400046,7.99800046 L19.1040005,7.99800046 L19.1030005,7.99800046 Z" id="Path"></path>
                        </g>
                    </g>
                </g>
            </g>
        </g>
    </g>
</svg>