<?xml version="1.0" encoding="UTF-8"?>
<svg width="107px" height="17px" viewBox="0 0 107 17" version="1.1" xmlns="http://www.w3.org/2000/svg" xmlns:xlink="http://www.w3.org/1999/xlink">
    <title>gosuslugi</title>
    <g id="Pages" stroke="none" stroke-width="1" fill="none" fill-rule="evenodd">
        <g id="Вход" transform="translate(-141.000000, -748.000000)" fill="#FFFFFF" fill-rule="nonzero">
            <g id="Дополнительные-входы" transform="translate(52.000000, 694.000000)">
                <g id="Госуслуги" transform="translate(76.000000, 35.000000)">
                    <g id="gosuslugi" transform="translate(13.000000, 19.000000)">
                        <path d="M69.6130384,0.439655172 L60.8045919,0.439655172 C60.7067203,0.439655172 60.6577845,0.488505747 60.6577845,0.586206897 C60.4131054,4.54310345 59.6790682,8.84195402 58.6024803,12.3103448 L58.6024803,12.4568966 C58.6514161,12.5057471 58.7003519,12.5057471 58.7492877,12.5057471 L61.7833082,12.5057471 C61.832244,12.5057471 61.9301156,12.4568966 61.9301156,12.408046 C62.7620245,9.72126437 63.4471259,6.20402299 63.6918049,3.22413793 L66.5790179,3.22413793 L66.5790179,12.3591954 C66.5790179,12.4568966 66.6279537,12.5057471 66.7258254,12.5057471 L69.6130384,12.5057471 C69.71091,12.5057471 69.7598458,12.4568966 69.7598458,12.3591954 L69.7598458,0.635057471 C69.7598458,0.537356322 69.71091,0.439655172 69.6130384,0.439655172 M106.853193,0.439655172 L103.96598,0.439655172 C103.868108,0.439655172 103.819172,0.488505747 103.819172,0.586206897 L103.819172,9.67241379 C103.183007,9.86781609 102.546841,9.91666667 101.86174,9.91666667 C99.9532428,9.91666667 99.5128205,9.33045977 99.5128205,6.79022989 L99.5128205,0.635057471 C99.5128205,0.537356322 99.4638847,0.488505747 99.3660131,0.488505747 L96.4788001,0.488505747 C96.3809284,0.488505747 96.3319926,0.537356322 96.3319926,0.635057471 L96.3319926,7.18103448 C96.3319926,11.2844828 97.7021954,12.8965517 101.27451,12.8965517 C103.280878,12.8965517 105.580861,12.3591954 106.902128,11.8706897 C106.951064,11.8706897 107,11.7729885 107,11.7241379 L107,0.635057471 C107,0.537356322 106.951064,0.439655172 106.853193,0.439655172 M45.9281046,0.488505747 L42.9919558,0.488505747 C42.8940841,0.488505747 42.8451483,0.537356322 42.8451483,0.586206897 C42.404726,2.39367816 41.4749455,5.42241379 40.2026144,8.59770115 L37.2664656,0.537356322 C37.2664656,0.488505747 37.1685939,0.439655172 37.1196581,0.439655172 L34.1835093,0.439655172 C34.1345735,0.439655172 34.0856377,0.488505747 34.0367019,0.488505747 C33.987766,0.537356322 33.987766,0.586206897 34.0367019,0.635057471 L38.4409251,12.6522989 C38.0005028,13.5804598 37.5600804,14.362069 37.1685939,15.0948276 C36.8749791,15.6321839 36.5813642,16.1695402 36.2877493,16.7557471 C36.2388135,16.8045977 36.2877493,16.8534483 36.2877493,16.9022989 C36.3366851,16.9511494 36.3856209,17 36.4345567,17 L39.6153846,17 C39.6643204,17 39.7132562,16.9511494 39.7621921,16.9022989 C40.300486,15.8764368 40.9855874,14.4109195 41.621753,12.9454023 C43.4813139,8.54885057 44.9983241,4.4454023 46.1238478,0.683908046 C46.1238478,0.635057471 46.1238478,0.586206897 46.074912,0.537356322 C46.0259762,0.488505747 45.9770404,0.488505747 45.9281046,0.488505747 M56.4003687,9.72126437 C56.4003687,9.67241379 56.3514329,9.62356322 56.3024971,9.62356322 L56.1556896,9.62356322 C55.4705882,9.86781609 54.1493213,10.112069 53.2195408,10.112069 C51.2131724,10.112069 50.283392,9.57471264 50.283392,6.49712644 C50.283392,4.0545977 50.5770069,2.88218391 53.2195408,2.88218391 C53.953578,2.88218391 54.6876152,2.97988506 55.5684599,3.27298851 C55.6663315,3.27298851 55.7152673,3.27298851 55.7642031,3.17528736 C56.1067538,2.54022989 56.4982403,1.80747126 56.9386626,0.83045977 L56.9386626,0.683908046 C56.9386626,0.635057471 56.8897268,0.586206897 56.840791,0.586206897 C55.6663315,0.195402299 54.2471929,0 53.0237976,0 C48.8153176,0 46.9557567,1.95402299 46.9557567,6.39942529 C46.9557567,10.8936782 48.8153176,12.8965517 53.0237976,12.8965517 C54.0514496,12.8965517 56.1556896,12.6522989 57.1344059,12.2614943 C57.2322775,12.2126437 57.2322775,12.1637931 57.2322775,12.066092 L56.4003687,9.72126437 L56.4003687,9.72126437 Z M83.7554885,0.488505747 L80.8193397,0.488505747 C80.7704039,0.488505747 80.6725323,0.537356322 80.6725323,0.586206897 C80.2321099,2.39367816 79.3023295,5.42241379 78.0299983,8.59770115 L75.0938495,0.537356322 C75.0938495,0.488505747 74.9959779,0.439655172 74.9470421,0.439655172 L72.0108932,0.439655172 C71.9619574,0.439655172 71.9130216,0.488505747 71.8640858,0.488505747 C71.81515,0.537356322 71.81515,0.586206897 71.8640858,0.635057471 L76.268309,12.6522989 C75.8278867,13.5804598 75.3874644,14.3132184 74.9959779,15.0948276 C74.702363,15.6321839 74.4087481,16.1695402 74.1151332,16.7557471 C74.0661974,16.8045977 74.1151332,16.8534483 74.1151332,16.9022989 C74.164069,16.9511494 74.2130049,17 74.2619407,17 L77.4427686,17 C77.4917044,17 77.5406402,16.9511494 77.589576,16.9022989 C78.12787,15.8764368 78.8129713,14.4109195 79.4491369,12.9454023 C81.3086978,8.54885057 82.8257081,4.4454023 83.902296,0.683908046 C83.902296,0.635057471 83.902296,0.586206897 83.8533601,0.537356322 C83.8533601,0.488505747 83.8044243,0.488505747 83.7554885,0.488505747 M94.5213675,0.439655172 L86.0065359,0.439655172 C85.9086643,0.439655172 85.8597285,0.488505747 85.8597285,0.586206897 L85.8597285,12.3591954 C85.8597285,12.4568966 85.9086643,12.5057471 86.0065359,12.5057471 L88.893749,12.5057471 C88.9916206,12.5057471 89.0405564,12.4568966 89.0405564,12.3591954 L89.0405564,3.27298851 L93.4937154,3.27298851 C93.5426512,3.27298851 93.6405229,3.22413793 93.6405229,3.17528736 C93.9830736,2.39367816 94.3256243,1.51436782 94.668175,0.683908046 L94.668175,0.537356322 C94.6192391,0.488505747 94.5703033,0.439655172 94.5213675,0.439655172" id="Shape"></path>
                        <path d="M15.1008772,10.2424242 C13.2192982,10.2424242 12.6403509,9.70075758 12.6403509,6.5 C12.6403509,3.0530303 13.2675439,2.75757576 15.1008772,2.75757576 C16.9342105,2.75757576 17.6096491,3.0530303 17.6096491,6.5 C17.6096491,9.75 16.9824561,10.2424242 15.1008772,10.2424242 M15.1008772,0.0492424242 C11,0.0492424242 9.40789474,1.8219697 9.40789474,6.45075758 C9.40789474,11.1287879 11,12.9507576 15.1008772,12.9507576 C19.2017544,12.9507576 20.8421053,11.1287879 20.8421053,6.45075758 C20.8421053,1.87121212 19.2017544,0.0492424242 15.1008772,0.0492424242 M32.1315789,9.75 C32.1315789,9.70075758 32.0833333,9.65151515 32.0350877,9.65151515 L31.8903509,9.65151515 C31.2149123,9.89772727 29.9122807,10.1439394 28.995614,10.1439394 C27.0175439,10.1439394 26.1008772,9.60227273 26.1008772,6.5 C26.1008772,4.03787879 26.3903509,2.85606061 28.995614,2.85606061 C29.7192982,2.85606061 30.4429825,2.95454545 31.3114035,3.25 C31.3596491,3.25 31.4561404,3.25 31.504386,3.15151515 C31.8421053,2.51136364 32.2280702,1.77272727 32.6622807,0.787878788 L32.6622807,0.640151515 C32.6622807,0.590909091 32.6140351,0.541666667 32.5657895,0.541666667 C31.4561404,0.196969697 30.0570175,0 28.8508772,0 C24.7017544,0 22.8684211,1.96969697 22.8684211,6.45075758 C22.8684211,10.9810606 24.7017544,13 28.8508772,13 C29.8640351,13 31.9385965,12.7537879 32.9035088,12.3598485 C33,12.3106061 33,12.2613636 33,12.1628788 L32.1315789,9.75 L32.1315789,9.75 Z M8.53947368,0.393939394 L0.144736842,0.393939394 C0.048245614,0.393939394 0,0.492424242 0,0.590909091 L0,12.4583333 C0,12.5568182 0.048245614,12.6060606 0.144736842,12.6060606 L2.99122807,12.6060606 C3.0877193,12.6060606 3.13596491,12.5568182 3.13596491,12.4583333 L3.13596491,3.25 L7.52631579,3.25 C7.5745614,3.25 7.62280702,3.20075758 7.67105263,3.15151515 C8.00877193,2.36363636 8.34649123,1.47727273 8.68421053,0.640151515 L8.68421053,0.492424242 C8.63596491,0.443181818 8.5877193,0.393939394 8.53947368,0.393939394" id="Shape"></path>
                    </g>
                </g>
            </g>
        </g>
    </g>
</svg>