<?xml version="1.0" encoding="UTF-8"?>
<svg width="20px" height="20px" viewBox="0 0 20 20" version="1.1" xmlns="http://www.w3.org/2000/svg" xmlns:xlink="http://www.w3.org/1999/xlink">
    <title>Group</title>
    <g id="Pages" stroke="none" stroke-width="1" fill="none" fill-rule="evenodd">
        <g id="Домашняя-страница" transform="translate(-223.000000, -802.000000)" fill="#000000" fill-rule="nonzero">
            <g id="Нижняя-панель-(White)-(Со-словами)" transform="translate(0.000000, 711.000000)">
                <g id="Группы" transform="translate(57.000000, 81.000000)">
                    <g id="Моя-библиотека" transform="translate(156.000000, 0.000000)">
                        <g id="fluent:library-20-filled" transform="translate(8.000000, 8.000000)">
                            <g id="Group" transform="translate(2.400000, 2.400000)">
                                <path d="M1.8,1.77635684e-15 C0.804,1.77635684e-15 0,0.804 0,1.7976 L0,17.3748 C0,18.3684 0.8052,19.1724 1.8,19.1724 L3,19.1724 C3.9924,19.1724 4.7988,18.3684 4.7988,17.3748 L4.7988,1.7976 C4.7988,0.804 3.9924,1.77635684e-15 2.9988,1.77635684e-15 L1.7988,1.77635684e-15 L1.8,1.77635684e-15 Z M7.7976,1.77635684e-15 C6.804,1.77635684e-15 5.9976,0.804 5.9976,1.7976 L5.9976,17.3748 C5.9976,18.3684 6.804,19.1724 7.7976,19.1724 L8.9976,19.1724 C9.9912,19.1724 10.7964,18.3684 10.7964,17.3748 L10.7964,1.7976 C10.7964,0.8052 9.9912,1.77635684e-15 8.9964,1.77635684e-15 L7.7964,1.77635684e-15 L7.7976,1.77635684e-15 Z M16.4616,4.9884 C16.350806,4.50834859 16.0480871,4.09469135 15.624033,3.84388713 C15.1999788,3.59318676 14.6916567,3.52705496 14.2176,3.6612 L13.3236,3.9132 C12.4175834,4.16935517 11.8627248,5.08120756 12.0516,6.0036 L14.4552,17.7624 C14.5544284,18.2440223 14.8463766,18.6640809 15.263204,18.9249664 C15.6800314,19.1858518 16.1854446,19.2648486 16.662,19.1436 L17.844,18.8436 C18.792,18.6036 19.3728,17.6508 19.1544,16.6992 L16.4616,4.9872 L16.4616,4.9884 Z" id="Shape"></path>
                            </g>
                        </g>
                    </g>
                </g>
            </g>
        </g>
    </g>
</svg>