<?xml version="1.0" encoding="UTF-8"?>
<svg width="24px" height="24px" viewBox="0 0 24 24" version="1.1" xmlns="http://www.w3.org/2000/svg" xmlns:xlink="http://www.w3.org/1999/xlink">
    <title>carbon:search</title>
    <g id="Pages" stroke="none" stroke-width="1" fill="none" fill-rule="evenodd">
        <g id="Домашняя-страница" transform="translate(-60.000000, -123.000000)">
            <g id="Поиск" transform="translate(34.000000, 108.000000)">
                <g id="carbon:search" transform="translate(26.000000, 15.000000)">
                    <rect id="ViewBox" x="0" y="0" width="24" height="24"></rect>
                    <path d="M23,21.9539785 L17.4133278,16.3673063 C20.20225,13.0191567 19.8643939,8.0695817 16.6463734,5.1314638 C13.4283529,2.19334589 8.46854045,2.30604215 5.3872913,5.3872913 C2.30604215,8.46854045 2.19334589,13.4283529 5.1314638,16.6463734 C8.0695817,19.8643939 13.0191567,20.20225 16.3673063,17.4133278 L21.9539785,23 L23,21.9539785 Z M4.50598467,11.1638302 C4.50598467,7.48680364 7.48680364,4.50598467 11.1638302,4.50598467 C14.8408567,4.50598467 17.8216757,7.48680364 17.8216757,11.1638302 C17.8216757,14.8408567 14.8408567,17.8216757 11.1638302,17.8216757 C7.48849368,17.8175988 4.51006158,14.8391667 4.50598467,11.1638302 Z" id="Shape" fill="#938F99" fill-rule="nonzero"></path>
                </g>
            </g>
        </g>
    </g>
</svg>