<?xml version="1.0" encoding="UTF-8"?>
<svg width="24px" height="24px" viewBox="0 0 24 24" version="1.1" xmlns="http://www.w3.org/2000/svg" xmlns:xlink="http://www.w3.org/1999/xlink">
    <title>eva:settings-outline</title>
    <g id="Pages" stroke="none" stroke-width="1" fill="none" fill-rule="evenodd">
        <g id="Домашняя-страница" transform="translate(-331.000000, -66.000000)">
            <g id="eva:settings-outline" transform="translate(331.000000, 66.000000)">
                <rect id="ViewBox" x="0" y="0" width="24" height="24"></rect>
                <path d="M8.61,22 C8.12202356,21.9971192 7.64821063,21.8356718 7.26,21.54 L5.19,20 C4.1981771,19.2266938 3.9830999,17.8133293 4.7,16.78 C5.0705914,16.2327899 5.15613544,15.5409989 4.93,14.92 L4.87,14.76 C4.71257002,14.1980026 4.2965174,13.7448024 3.75,13.54 L3.59,13.54 C2.37431292,13.1312103 1.71424402,11.8199923 2.11,10.6 L2.93,8 C3.08271042,7.39056704 3.49092848,6.87664966 4.05,6.59 C4.57005569,6.32204424 5.17713898,6.27868114 5.73,6.47 C6.33479015,6.6735412 7.00109352,6.56498616 7.51,6.18 L7.64,6.08 C8.09957743,5.71329138 8.3680547,5.15794799 8.37,4.57 L8.37,4.33 C8.3644041,3.05643128 9.38652531,2.01645643 10.66,2 L13.21,2 C13.8112215,2.00162019 14.3870174,2.24273474 14.81,2.67 C15.2502947,3.11779113 15.4948655,3.72202497 15.49,4.35 L15.49,4.63 C15.4797093,5.18922729 15.7358416,5.72005234 16.18,6.06 L16.29,6.14 C16.7455358,6.48159739 17.3393834,6.57870456 17.88,6.4 L18.22,6.29 C18.8020327,6.09706504 19.4374787,6.14891019 19.9805395,6.43363996 C20.5236002,6.71836972 20.9276563,7.21154129 21.1,7.8 L21.89,10.32 C22.2698933,11.5303265 21.6250389,12.824452 20.43,13.25 L20.23,13.32 C19.6326669,13.5155976 19.1716538,13.9953511 19,14.6 C18.8389258,15.1601533 18.9302212,15.7627032 19.25,16.25 L19.51,16.63 C20.225852,17.668993 20.0064894,19.0860753 19.01,19.86 L17,21.41 C16.50919,21.785352 15.8851329,21.9412968 15.27545,21.8409452 C14.6657672,21.7405937 14.1246137,21.3928597 13.78,20.88 L13.66,20.71 C13.327089,20.2096996 12.760759,19.915208 12.16,19.93 C11.5880477,19.9448116 11.0572018,20.2306517 10.73,20.7 L10.5,21.03 C10.1552691,21.5464632 9.61242755,21.8975007 9,22 C8.87031043,22.0127053 8.73968957,22.0127053 8.61,22 Z M4.4,11.62 C5.54516456,12.0283462 6.42843289,12.956149 6.78,14.12 L6.78,14.24 C7.21806844,15.4503912 7.04687111,16.7976398 6.32,17.86 C6.18898092,18.0047559 6.18898092,18.2252441 6.32,18.37 L8.47,19.9999926 C8.52675005,20.0445759 8.59999377,20.062455 8.67089953,20.0490404 C8.74180529,20.0356258 8.80345574,19.9922262 8.84,19.93 L9.07,19.6 C9.77413284,18.5825794 10.9326853,17.975437 12.17,17.975437 C13.4073147,17.975437 14.5658672,18.5825794 15.27,19.6 L15.39,19.78 C15.4329878,19.8409941 15.497164,19.8837782 15.57,19.9 C15.6375029,19.9099606 15.7061439,19.8918971 15.76,19.85 L17.82,18.29 C17.9697274,18.1711567 18.0004622,17.9560132 17.89,17.8 L17.63,17.42 C16.9437857,16.419382 16.7488324,15.1613819 17.1,13.9999926 C17.4566285,12.777104 18.3852305,11.8037501 19.59,11.39 L19.79,11.32 C19.9635121,11.2504937 20.0483791,11.0539594 19.98,10.88 L19.2,8.39 C19.1621562,8.30195693 19.0898668,8.23328203 19,8.2 C18.9402881,8.16971094 18.8697119,8.16971094 18.81,8.2 L18.47,8.31 C17.3024775,8.69532887 16.020144,8.48222971 15.04,7.74 L15,7.65 C14.0607321,6.93868287 13.5092008,5.82821711 13.51,4.65 L13.51,4.34 C13.5118103,4.24361542 13.4759313,4.1503301 13.41,4.08 C13.3524694,4.02800706 13.2775419,3.99946328 13.2,3.99999257 L10.66,3.99999257 C10.5777195,4.00513649 10.5008738,4.04283563 10.4464535,4.10476218 C10.3920332,4.16668874 10.3645211,4.24774157 10.37,4.33 L10.37,4.58 C10.3701255,5.79002763 9.80858869,6.93157289 8.85,7.67 L8.72,7.77 C7.68377662,8.55895232 6.32274683,8.78016653 5.09,8.36 C5.04457832,8.34475538 4.99542168,8.34475538 4.95,8.36 C4.89356362,8.39428545 4.85106075,8.44741404 4.83,8.51 L4,11.12 C3.93985376,11.3047928 4.03722792,11.5039672 4.22,11.57 L4.4,11.62 Z" id="Shape" fill="#000000" fill-rule="nonzero"></path>
                <path d="M12,15.5 C10.5843821,15.5 9.30815514,14.6472524 8.76642164,13.339392 C8.22468814,12.0315316 8.52413328,10.5261193 9.52512627,9.52512627 C10.5261193,8.52413328 12.0315316,8.22468814 13.339392,8.76642164 C14.6472524,9.30815514 15.5,10.5843821 15.5,12 C15.5,13.9329966 13.9329966,15.5 12,15.5 L12,15.5 Z M12,10.5 C11.1715729,10.5 10.5,11.1715729 10.5,12 C10.5,12.8284271 11.1715729,13.5 12,13.5 C12.8284271,13.5 13.5,12.8284271 13.5,12 C13.5,11.1715729 12.8284271,10.5 12,10.5 Z" id="Shape" fill="#000000" fill-rule="nonzero"></path>
            </g>
        </g>
    </g>
</svg>