<?xml version="1.0" encoding="UTF-8"?>
<svg width="24px" height="24px" viewBox="0 0 24 24" version="1.1" xmlns="http://www.w3.org/2000/svg" xmlns:xlink="http://www.w3.org/1999/xlink">
    <title>topcoat:user</title>
    <g id="Pages" stroke="none" stroke-width="1" fill="none" fill-rule="evenodd">
        <g id="Домашняя-страница" transform="translate(-301.000000, -800.000000)">
            <g id="Нижняя-панель-(White)-(Со-словами)" transform="translate(0.000000, 711.000000)">
                <g id="Группы" transform="translate(57.000000, 81.000000)">
                    <g id="Пользователь" transform="translate(236.000000, 0.000000)">
                        <g id="topcoat:user" transform="translate(8.000000, 8.000000)">
                            <rect id="ViewBox" x="0" y="0" width="24" height="24"></rect>
                            <path d="M11.6994286,23.4262857 C11.8977143,23.4262857 12.1022857,23.432 12.3,23.4262857 C16.1702857,23.3691429 19.8548571,22.9342857 20.5222857,22.2988571 C20.6765714,20.8914286 20.864,20.2102857 14.6222857,17.2577143 C13.7342857,16.76 14.2045714,14.8314286 14.2045714,14.8314286 C16.084,13.4131429 17.3742857,10.128 17.3742857,7.49542857 C17.3742857,2.94628571 15.3228571,0.794857143 12.3017143,0.571428571 L11.7005714,0.571428571 C8.68457143,0.794857143 6.63371429,2.94628571 6.63371429,7.49542857 C6.63371429,10.128 7.91828571,13.412 9.79885714,14.8314286 C9.79885714,14.8314286 10.2674286,16.76 9.38457143,17.2577143 C3.13657143,20.2102857 3.324,20.892 3.47885714,22.2988571 C4.14571429,22.9337143 7.82914286,23.3691429 11.6994286,23.4262857 L11.6994286,23.4262857 Z" id="Path" fill="#000000" fill-rule="nonzero"></path>
                        </g>
                    </g>
                </g>
            </g>
        </g>
    </g>
</svg>