<?xml version="1.0" encoding="UTF-8"?>
<svg width="24px" height="24px" viewBox="0 0 24 24" version="1.1" xmlns="http://www.w3.org/2000/svg" xmlns:xlink="http://www.w3.org/1999/xlink">
    <title>akar-icons:vk-fill</title>
    <g id="Pages" stroke="none" stroke-width="1" fill="none" fill-rule="evenodd">
        <g id="Вход" transform="translate(-65.000000, -741.000000)">
            <g id="Дополнительные-входы" transform="translate(52.000000, 694.000000)">
                <g id="Вконтакте" transform="translate(0.000000, 35.000000)">
                    <g id="akar-icons:vk-fill" transform="translate(13.000000, 12.000000)">
                        <rect id="ViewBox" x="0" y="0" width="24" height="24"></rect>
                        <g id="Group" transform="translate(0.000000, 5.000000)" fill="#FFFFFF">
                            <path d="M23.45,0.948 C23.616,0.402 23.45,0 22.655,0 L20.03,0 C19.362,0 19.054,0.347 18.887,0.73 C18.887,0.73 17.552,3.926 15.661,6.002 C15.049,6.604 14.771,6.795 14.437,6.795 C14.27,6.795 14.019,6.604 14.019,6.057 L14.019,0.948 C14.019,0.292 13.835,0 13.279,0 L9.151,0 C8.734,0 8.483,0.304 8.483,0.593 C8.483,1.214 9.429,1.358 9.526,3.106 L9.526,6.904 C9.526,7.737 9.373,7.888 9.039,7.888 C8.149,7.888 5.984,4.677 4.699,1.003 C4.45,0.288 4.198,0 3.527,0 L0.9,0 C0.15,0 0,0.347 0,0.73 C0,1.412 0.89,4.8 4.145,9.281 C6.315,12.341 9.37,14 12.153,14 C13.822,14 14.028,13.632 14.028,12.997 L14.028,10.684 C14.028,9.947 14.186,9.8 14.715,9.8 C15.105,9.8 15.772,9.992 17.33,11.467 C19.11,13.216 19.403,14 20.405,14 L23.03,14 C23.78,14 24.156,13.632 23.94,12.904 C23.702,12.18 22.852,11.129 21.725,9.882 C21.113,9.172 20.195,8.407 19.916,8.024 C19.527,7.533 19.638,7.314 19.916,6.877 C19.916,6.877 23.116,2.451 23.449,0.948 L23.45,0.948 Z" id="Path"></path>
                        </g>
                    </g>
                </g>
            </g>
        </g>
    </g>
</svg>